<svg width="325" height="324" viewBox="0 0 325 324" fill="none" xmlns="http://www.w3.org/2000/svg">
<g clip-path="url(#clip0_8_3)">
<rect x="74" y="92" width="181" height="148" fill="black"/>
<path d="M162.5 324C252.256 324 325 251.48 325 162C325 72.5203 252.256 0 162.5 0C72.7441 0 0 72.5203 0 162C0 251.48 72.7441 324 162.5 324ZM116.797 146.812H208.203C216.646 146.812 223.438 153.584 223.438 162C223.438 170.416 216.646 177.188 208.203 177.188H116.797C108.354 177.188 101.562 170.416 101.562 162C101.562 153.584 108.354 146.812 116.797 146.812Z" fill="#66CDF7"/>
</g>
<defs>
<clipPath id="clip0_8_3">
<rect width="325" height="324" fill="white"/>
</clipPath>
</defs>
</svg>
