<svg width="325" height="324" viewBox="0 0 325 324" fill="none" xmlns="http://www.w3.org/2000/svg">
<g clip-path="url(#clip0_8_5)">
<rect x="72" y="88" width="181" height="148" fill="black"/>
<path d="M162.5 324C252.256 324 325 251.48 325 162C325 72.5203 252.256 0 162.5 0C72.7441 0 0 72.5203 0 162C0 251.48 72.7441 324 162.5 324ZM147.266 217.688V177.188H106.641C98.1982 177.188 91.4062 170.416 91.4062 162C91.4062 153.584 98.1982 146.812 106.641 146.812H147.266V106.312C147.266 97.8961 154.058 91.125 162.5 91.125C170.942 91.125 177.734 97.8961 177.734 106.312V146.812H218.359C226.802 146.812 233.594 153.584 233.594 162C233.594 170.416 226.802 177.188 218.359 177.188H177.734V217.688C177.734 226.104 170.942 232.875 162.5 232.875C154.058 232.875 147.266 226.104 147.266 217.688Z" fill="#66CDF7"/>
</g>
<defs>
<clipPath id="clip0_8_5">
<rect width="325" height="324" fill="white"/>
</clipPath>
</defs>
</svg>
