<svg width="98" height="30" viewBox="0 0 98 30" fill="none" xmlns="http://www.w3.org/2000/svg">
<path d="M0.480469 29H5.51953V18.4531H10.7148C10.7539 18.4531 10.793 18.4531 10.832 18.4531C10.8841 18.4531 10.9297 18.4531 10.9688 18.4531L16.5156 29H22.2578L16.1055 17.6914C17.7331 17.0924 19.0221 16.0768 19.9727 14.6445C20.9362 13.2122 21.418 11.5456 21.418 9.64453V9.60547C21.418 7.79557 21.0273 6.23307 20.2461 4.91797C19.4648 3.60286 18.3516 2.59375 16.9062 1.89062C15.4609 1.17448 13.7357 0.816406 11.7305 0.816406H0.480469V29ZM5.51953 14.4688V4.87891H11.1055C12.694 4.87891 13.9505 5.30859 14.875 6.16797C15.7995 7.01432 16.2617 8.17318 16.2617 9.64453V9.68359C16.2617 11.194 15.819 12.3724 14.9336 13.2188C14.0482 14.0521 12.8047 14.4688 11.2031 14.4688H5.51953ZM33.9766 29.4102C35.3177 29.4102 36.5156 29.2344 37.5703 28.8828C38.625 28.5182 39.5365 28.0299 40.3047 27.418C41.0729 26.806 41.6849 26.1224 42.1406 25.3672C42.5964 24.599 42.9089 23.8177 43.0781 23.0234L43.1172 22.8086H38.5859L38.5469 22.9453C38.3906 23.4141 38.1107 23.8503 37.707 24.2539C37.3164 24.6576 36.8151 24.9896 36.2031 25.25C35.5911 25.4974 34.8815 25.6211 34.0742 25.6211C32.9935 25.6211 32.0625 25.3867 31.2812 24.918C30.5 24.4362 29.8945 23.7526 29.4648 22.8672C29.0482 21.9688 28.8398 20.888 28.8398 19.625V17.75C28.8398 16.4479 29.0482 15.3411 29.4648 14.4297C29.8945 13.5182 30.4805 12.8346 31.2227 12.3789C31.9779 11.9102 32.8372 11.6758 33.8008 11.6758C34.7513 11.6758 35.5911 11.9036 36.3203 12.3594C37.0495 12.8021 37.6224 13.4727 38.0391 14.3711C38.4557 15.2695 38.6641 16.3958 38.6641 17.75V19.625L41.0078 16.5977H26.418V19.8398H43.332V18.2773C43.332 16.194 42.9414 14.3711 42.1602 12.8086C41.3919 11.2461 40.2852 10.0352 38.8398 9.17578C37.4076 8.30339 35.7083 7.86719 33.7422 7.86719C31.763 7.86719 30.0443 8.31641 28.5859 9.21484C27.1406 10.1133 26.0143 11.3763 25.207 13.0039C24.4128 14.6185 24.0156 16.513 24.0156 18.6875V18.707C24.0156 20.8945 24.4128 22.7891 25.207 24.3906C26.0013 25.9922 27.1406 27.2292 28.625 28.1016C30.1224 28.974 31.9062 29.4102 33.9766 29.4102ZM54.5234 29.4102C56.2161 29.4102 57.7135 29.1432 59.0156 28.6094C60.3307 28.0625 61.3594 27.3008 62.1016 26.3242C62.8438 25.3346 63.2148 24.1888 63.2148 22.8867V22.8672C63.2148 21.3698 62.7591 20.1784 61.8477 19.293C60.9362 18.3945 59.4062 17.7044 57.2578 17.2227L53.8203 16.4609C52.7526 16.2135 51.9909 15.888 51.5352 15.4844C51.0924 15.0807 50.8711 14.5859 50.8711 14V13.9805C50.8711 13.4727 51.0078 13.0299 51.2812 12.6523C51.5677 12.2747 51.9714 11.9818 52.4922 11.7734C53.026 11.5651 53.651 11.4609 54.3672 11.4609C55.5 11.4609 56.3919 11.7344 57.043 12.2812C57.694 12.8151 58.0716 13.4987 58.1758 14.332L58.1953 14.4883H62.7266L62.707 14.2734C62.6549 13.0755 62.2904 11.9948 61.6133 11.0312C60.9492 10.0677 60.0052 9.29948 58.7812 8.72656C57.5573 8.15365 56.0859 7.86719 54.3672 7.86719C52.7135 7.86719 51.2617 8.13411 50.0117 8.66797C48.7617 9.20182 47.7917 9.94401 47.1016 10.8945C46.4115 11.8451 46.0664 12.9518 46.0664 14.2148V14.2344C46.0664 15.7708 46.5612 17.0273 47.5508 18.0039C48.5534 18.9805 50.0443 19.6836 52.0234 20.1133L55.4609 20.875C56.5417 21.1224 57.2904 21.4414 57.707 21.832C58.1237 22.2096 58.332 22.7044 58.332 23.3164V23.3359C58.332 23.8438 58.1758 24.2865 57.8633 24.6641C57.5638 25.0417 57.1341 25.3281 56.5742 25.5234C56.0143 25.7188 55.3372 25.8164 54.543 25.8164C53.306 25.8164 52.3424 25.569 51.6523 25.0742C50.9753 24.5794 50.5456 23.8828 50.3633 22.9844L50.3242 22.8086H45.5391L45.5586 22.9844C45.7148 24.2604 46.151 25.3867 46.8672 26.3633C47.5964 27.3268 48.599 28.0755 49.875 28.6094C51.1641 29.1432 52.7135 29.4102 54.5234 29.4102ZM75.4219 29.4102C76.763 29.4102 77.9609 29.2344 79.0156 28.8828C80.0703 28.5182 80.9818 28.0299 81.75 27.418C82.5182 26.806 83.1302 26.1224 83.5859 25.3672C84.0417 24.599 84.3542 23.8177 84.5234 23.0234L84.5625 22.8086H80.0312L79.9922 22.9453C79.8359 23.4141 79.556 23.8503 79.1523 24.2539C78.7617 24.6576 78.2604 24.9896 77.6484 25.25C77.0365 25.4974 76.3268 25.6211 75.5195 25.6211C74.4388 25.6211 73.5078 25.3867 72.7266 24.918C71.9453 24.4362 71.3398 23.7526 70.9102 22.8672C70.4935 21.9688 70.2852 20.888 70.2852 19.625V17.75C70.2852 16.4479 70.4935 15.3411 70.9102 14.4297C71.3398 13.5182 71.9258 12.8346 72.668 12.3789C73.4232 11.9102 74.2826 11.6758 75.2461 11.6758C76.1966 11.6758 77.0365 11.9036 77.7656 12.3594C78.4948 12.8021 79.0677 13.4727 79.4844 14.3711C79.901 15.2695 80.1094 16.3958 80.1094 17.75V19.625L82.4531 16.5977H67.8633V19.8398H84.7773V18.2773C84.7773 16.194 84.3867 14.3711 83.6055 12.8086C82.8372 11.2461 81.7305 10.0352 80.2852 9.17578C78.8529 8.30339 77.1536 7.86719 75.1875 7.86719C73.2083 7.86719 71.4896 8.31641 70.0312 9.21484C68.5859 10.1133 67.4596 11.3763 66.6523 13.0039C65.8581 14.6185 65.4609 16.513 65.4609 18.6875V18.707C65.4609 20.8945 65.8581 22.7891 66.6523 24.3906C67.4466 25.9922 68.5859 27.2292 70.0703 28.1016C71.5677 28.974 73.3516 29.4102 75.4219 29.4102ZM95.5586 29.4102C96.0664 29.4102 96.5221 29.3906 96.9258 29.3516C97.3424 29.3125 97.694 29.2734 97.9805 29.2344V25.582C97.8112 25.5951 97.6289 25.6146 97.4336 25.6406C97.2513 25.6536 97.0365 25.6602 96.7891 25.6602C95.9167 25.6602 95.2526 25.4714 94.7969 25.0938C94.3542 24.7031 94.1328 24.0065 94.1328 23.0039V12.0469H97.9805V8.29688H94.1328V3.04297H89.1914V8.29688H86.2617V12.0469H89.1914V23.3945C89.1914 25.5299 89.7122 27.0664 90.7539 28.0039C91.8086 28.9414 93.4102 29.4102 95.5586 29.4102Z" fill="#9D9D9D"/>
</svg>
